<?xml version="1.0" encoding="UTF-8" standalone="no"?>
<!DOCTYPE svg PUBLIC "-//W3C//DTD SVG 1.1//EN"
 "http://www.w3.org/Graphics/SVG/1.1/DTD/svg11.dtd">
<!-- Generated by graphviz version 2.38.0 (20140413.2041)
 -->
<!-- Title: %3 Pages: 1 -->
<svg width="234pt" height="260pt"
 viewBox="0.00 0.00 233.79 260.00" xmlns="http://www.w3.org/2000/svg" xmlns:xlink="http://www.w3.org/1999/xlink">
<g id="graph0" class="graph" transform="scale(1 1) rotate(0) translate(4 256)">
<title>%3</title>
<polygon fill="white" stroke="none" points="-4,4 -4,-256 229.79,-256 229.79,4 -4,4"/>
<!-- A -->
<g id="node1" class="node"><title>A</title>
<ellipse fill="none" stroke="black" cx="118.495" cy="-234" rx="27" ry="18"/>
<text text-anchor="middle" x="118.495" y="-230.3" font-family="Times New Roman,serif" font-size="14.00"> </text>
</g>
<!-- 0 -->
<g id="node2" class="node"><title>0</title>
<ellipse fill="none" stroke="black" cx="64.4948" cy="-162" rx="34.394" ry="18"/>
<text text-anchor="middle" x="64.4948" y="-158.3" font-family="Times New Roman,serif" font-size="14.00">Cajero</text>
</g>
<!-- A&#45;&gt;0 -->
<g id="edge1" class="edge"><title>A&#45;&gt;0</title>
<path fill="none" stroke="black" d="M106.51,-217.465C99.6164,-208.528 90.8072,-197.109 83.0374,-187.037"/>
<polygon fill="black" stroke="black" points="85.6994,-184.757 76.82,-178.977 80.1569,-189.033 85.6994,-184.757"/>
</g>
<!-- 3 -->
<g id="node5" class="node"><title>3</title>
<ellipse fill="none" stroke="black" cx="172.495" cy="-162" rx="53.0913" ry="18"/>
<text text-anchor="middle" x="172.495" y="-158.3" font-family="Times New Roman,serif" font-size="14.00">McDonalds</text>
</g>
<!-- A&#45;&gt;3 -->
<g id="edge4" class="edge"><title>A&#45;&gt;3</title>
<path fill="none" stroke="black" d="M130.479,-217.465C137.179,-208.78 145.688,-197.75 153.293,-187.891"/>
<polygon fill="black" stroke="black" points="156.073,-190.017 159.41,-179.962 150.531,-185.742 156.073,-190.017"/>
</g>
<!-- 1 -->
<g id="node3" class="node"><title>1</title>
<ellipse fill="none" stroke="black" cx="59.4948" cy="-90" rx="46.2923" ry="18"/>
<text text-anchor="middle" x="59.4948" y="-86.3" font-family="Times New Roman,serif" font-size="14.00">Cobrador</text>
</g>
<!-- 0&#45;&gt;1 -->
<g id="edge2" class="edge"><title>0&#45;&gt;1</title>
<path fill="none" stroke="black" d="M63.2589,-143.697C62.7079,-135.983 62.0457,-126.712 61.4314,-118.112"/>
<polygon fill="black" stroke="black" points="64.9202,-117.83 60.7165,-108.104 57.938,-118.328 64.9202,-117.83"/>
</g>
<!-- 2 -->
<g id="node4" class="node"><title>2</title>
<ellipse fill="none" stroke="black" cx="58.4948" cy="-18" rx="58.4896" ry="18"/>
<text text-anchor="middle" x="58.4948" y="-14.3" font-family="Times New Roman,serif" font-size="14.00">Programador</text>
</g>
<!-- 1&#45;&gt;2 -->
<g id="edge3" class="edge"><title>1&#45;&gt;2</title>
<path fill="none" stroke="black" d="M59.2476,-71.6966C59.1374,-63.9827 59.005,-54.7125 58.8821,-46.1124"/>
<polygon fill="black" stroke="black" points="62.3817,-46.0533 58.7392,-36.1043 55.3825,-46.1533 62.3817,-46.0533"/>
</g>
<!-- 4 -->
<g id="node6" class="node"><title>4</title>
<ellipse fill="none" stroke="black" cx="175.495" cy="-90" rx="48.9926" ry="18"/>
<text text-anchor="middle" x="175.495" y="-86.3" font-family="Times New Roman,serif" font-size="14.00">McGregor</text>
</g>
<!-- 3&#45;&gt;4 -->
<g id="edge5" class="edge"><title>3&#45;&gt;4</title>
<path fill="none" stroke="black" d="M173.236,-143.697C173.567,-135.983 173.964,-126.712 174.333,-118.112"/>
<polygon fill="black" stroke="black" points="177.83,-118.245 174.762,-108.104 170.837,-117.945 177.83,-118.245"/>
</g>
<!-- 5 -->
<g id="node7" class="node"><title>5</title>
<ellipse fill="none" stroke="black" cx="177.495" cy="-18" rx="42.4939" ry="18"/>
<text text-anchor="middle" x="177.495" y="-14.3" font-family="Times New Roman,serif" font-size="14.00">Youtube</text>
</g>
<!-- 4&#45;&gt;5 -->
<g id="edge6" class="edge"><title>4&#45;&gt;5</title>
<path fill="none" stroke="black" d="M175.989,-71.6966C176.21,-63.9827 176.474,-54.7125 176.72,-46.1124"/>
<polygon fill="black" stroke="black" points="180.219,-46.2002 177.006,-36.1043 173.222,-46.0003 180.219,-46.2002"/>
</g>
</g>
</svg>
